<?xml version="1.0" standalone="no"?>
<!DOCTYPE svg PUBLIC "-//W3C//DTD SVG 20010904//EN"
 "http://www.w3.org/TR/2001/REC-SVG-20010904/DTD/svg10.dtd">
<svg version="1.0" xmlns="http://www.w3.org/2000/svg"
 width="1920.000000pt" height="1080.000000pt" viewBox="0 0 1920.000000 1080.000000"
 preserveAspectRatio="xMidYMid meet">
<metadata>
Created by potrace 1.16, written by Peter Selinger 2001-2019
</metadata>
<g transform="translate(0.000000,1080.000000) scale(0.100000,-0.100000)"
fill="#000000" stroke="none">
<path d="M0 5400 l0 -5400 9600 0 9600 0 0 5400 0 5400 -4746 0 c-3161 0
-4743 -3 -4739 -10 3 -5 -3 -10 -14 -10 -10 0 -21 4 -23 10 -2 5 -19 7 -41 3
-21 -3 -36 -7 -34 -9 3 -4 144 -25 257 -40 308 -41 693 -132 1020 -241 124
-41 249 -86 278 -99 29 -13 55 -24 58 -24 3 0 22 -7 41 -17 22 -10 37 -12 41
-6 4 5 16 13 27 18 19 7 19 8 -5 15 -14 4 30 8 99 9 78 1 127 -3 131 -9 4 -6
24 -13 45 -15 22 -3 42 -9 45 -13 12 -17 52 -32 85 -32 21 0 35 -5 35 -13 0
-11 12 -18 88 -47 17 -7 32 -16 32 -21 0 -5 9 -9 20 -9 11 0 20 -7 20 -15 0
-8 9 -15 21 -15 11 0 18 -4 14 -9 -3 -5 5 -11 17 -13 15 -2 24 -11 26 -25 2
-15 13 -24 34 -28 18 -4 52 -29 82 -59 28 -29 68 -64 88 -79 29 -21 37 -35 40
-64 3 -35 6 -38 58 -56 30 -10 57 -23 58 -28 2 -5 10 -9 18 -9 7 0 16 -11 20
-24 3 -15 15 -27 30 -30 13 -4 24 -11 24 -17 0 -6 5 -7 12 -3 7 4 8 3 4 -5 -7
-11 17 -44 27 -35 6 6 67 -70 67 -85 0 -6 8 -11 18 -11 10 0 27 -7 38 -15 10
-8 27 -15 36 -15 26 0 68 -48 68 -76 0 -15 12 -38 30 -56 17 -16 30 -37 30
-46 0 -10 9 -23 20 -30 12 -7 19 -20 18 -29 -2 -11 7 -20 30 -26 17 -6 32 -16
32 -24 0 -8 4 -12 9 -9 4 3 21 -6 37 -19 16 -14 31 -20 32 -15 11 32 82 -24
82 -65 0 -21 51 -85 68 -85 9 0 92 -83 92 -91 0 -11 60 -69 71 -69 5 0 9 -7 9
-16 0 -8 6 -22 13 -29 30 -35 34 -44 39 -87 5 -39 2 -50 -16 -66 -11 -11 -26
-18 -32 -15 -6 2 -10 -6 -9 -19 1 -12 7 -24 13 -26 7 -2 12 -8 12 -13 0 -5 26
-49 58 -97 32 -48 73 -113 91 -145 30 -52 31 -58 14 -63 -10 -3 -28 -10 -41
-15 -34 -13 -41 -11 -52 14 -12 26 -10 23 -124 197 -48 74 -100 149 -115 165
-46 52 -91 113 -91 124 0 6 -4 11 -8 11 -4 0 -37 35 -72 78 -117 139 -255 288
-371 397 -41 39 -76 72 -79 75 -35 34 -173 150 -340 283 -28 23 -245 173 -285
197 -22 13 -44 28 -50 32 -96 78 -582 327 -768 394 -490 177 -712 237 -1117
303 -252 41 -764 57 -1050 32 -462 -40 -752 -101 -1233 -262 -285 -95 -744
-312 -927 -438 -8 -6 -69 -46 -135 -89 -144 -95 -340 -238 -420 -307 -182
-158 -420 -389 -504 -490 -9 -11 -26 -32 -39 -46 -14 -16 -20 -32 -16 -42 9
-23 23 -21 17 2 -7 27 15 36 37 16 10 -9 24 -14 29 -10 6 3 11 2 11 -3 0 -13
-29 -24 -42 -15 -7 3 -8 1 -4 -5 4 -7 14 -12 22 -12 8 0 14 -5 14 -12 0 -6 12
-26 26 -45 19 -25 24 -42 22 -71 -4 -35 -6 -37 -41 -40 -22 -2 -37 -8 -37 -16
0 -8 -15 -20 -32 -27 -18 -7 -47 -27 -63 -44 -20 -19 -49 -34 -84 -42 -29 -7
-61 -21 -70 -31 -9 -11 -33 -25 -54 -31 -30 -10 -37 -17 -32 -32 7 -22 0 -24
-19 -7 -22 21 -6 53 24 50 3 0 10 15 16 34 15 47 4 43 -36 -13 -19 -27 -40
-54 -47 -61 -7 -7 -13 -18 -13 -23 0 -6 -12 -26 -26 -45 -15 -19 -22 -34 -18
-34 5 0 0 -8 -12 -18 -23 -19 -154 -224 -154 -241 0 -6 -4 -11 -9 -11 -5 0
-13 -10 -17 -22 -4 -13 -28 -61 -55 -108 -62 -111 -156 -326 -229 -520 -270
-728 -366 -1433 -294 -2175 23 -245 97 -623 164 -845 18 -58 36 -118 40 -135
11 -39 59 -184 70 -210 5 -11 30 -74 56 -140 84 -216 262 -570 354 -705 21
-30 62 -93 91 -140 29 -47 87 -132 128 -189 74 -103 76 -106 80 -175 4 -83 11
-87 -111 70 -85 111 -191 264 -229 333 -11 20 -33 56 -49 81 -28 44 -115 203
-190 345 -97 186 -204 451 -275 680 -26 83 -55 177 -65 210 -25 81 -73 315
-104 505 -49 301 -61 453 -61 785 0 302 7 415 40 655 26 181 34 232 53 333 10
54 16 100 12 102 -4 3 -11 -12 -15 -32 -5 -28 -9 -33 -17 -22 -7 10 -8 3 -3
-23 4 -24 2 -38 -5 -38 -5 0 -11 12 -11 28 -1 15 -2 42 -3 61 0 19 -7 36 -13
38 -9 3 -13 29 -13 83 0 50 -4 80 -11 82 -16 5 4 42 47 83 19 18 34 40 34 49
0 21 21 31 31 15 6 -10 9 -10 9 -2 0 7 6 11 13 9 6 -1 9 -1 5 1 -5 3 -8 18 -8
34 0 16 -4 29 -10 29 -5 0 -10 5 -10 10 0 6 7 10 16 10 13 0 15 7 9 40 -6 33
-4 40 9 40 11 0 16 9 16 29 0 51 23 131 37 131 7 0 13 9 13 20 0 11 -4 20 -10
20 -5 0 -10 9 -10 20 0 15 7 20 25 20 25 0 25 1 25 80 0 73 2 80 20 80 17 0
20 7 20 40 0 22 4 40 8 40 11 0 32 45 32 68 0 9 7 30 15 46 8 15 15 34 15 41
0 7 6 18 14 24 8 7 18 27 21 44 4 18 15 47 26 65 12 21 14 32 6 32 -6 0 0 11
14 24 21 19 28 38 33 88 4 34 16 78 26 96 11 17 15 32 10 32 -18 0 -10 22 10
27 10 3 24 20 30 38 7 21 21 37 40 45 16 7 32 21 35 31 4 10 11 19 16 19 5 0
9 8 9 18 0 9 14 37 30 62 17 25 37 64 46 88 9 23 21 42 25 42 5 0 9 4 9 10 0
12 56 70 68 70 10 0 92 90 92 102 0 4 9 8 20 8 11 0 20 5 20 11 0 5 15 16 34
24 19 8 43 30 55 50 11 20 25 34 30 30 12 -7 19 4 25 41 8 40 27 84 37 84 5 0
8 8 7 18 -3 44 2 62 22 62 20 0 63 37 73 64 4 9 15 16 25 16 10 0 30 12 45 28
36 38 54 52 68 52 7 0 30 18 51 40 37 38 43 40 99 40 44 0 59 4 59 14 0 8 10
23 23 33 12 10 33 39 47 66 15 29 32 47 42 47 12 0 18 8 18 24 0 16 7 27 20
31 11 3 20 11 20 16 0 5 9 9 20 9 11 0 20 4 20 9 0 12 59 71 71 71 5 0 9 7 9
15 0 18 47 65 65 65 9 0 15 10 15 23 0 21 4 24 42 23 31 -1 43 3 43 13 0 8 14
18 32 23 18 5 35 13 38 18 3 6 24 10 46 10 21 0 39 5 39 10 0 6 7 10 16 10 9
0 32 9 50 21 19 11 34 18 34 14 0 -3 7 1 16 9 8 9 22 16 30 16 8 0 14 5 14 10
0 6 18 10 40 10 29 0 40 4 40 15 0 11 12 15 50 15 33 0 50 4 50 13 1 26 49 67
78 67 37 0 86 25 111 56 22 28 31 30 31 7 0 -15 2 -14 20 2 14 13 28 16 52 11
23 -4 28 -3 18 3 -8 6 -12 12 -10 14 3 2 28 19 55 37 28 19 52 36 55 40 8 10
137 70 149 70 7 0 19 7 28 15 9 9 23 13 34 10 12 -4 38 5 69 24 28 17 64 31
80 31 17 0 39 9 50 20 11 11 28 20 38 20 9 0 32 9 50 20 25 16 50 20 112 20
53 0 80 4 80 11 0 8 14 10 39 6 22 -3 44 0 50 6 6 6 11 8 11 3 0 -4 14 1 30
11 17 9 30 23 30 30 0 11 -764 13 -4080 13 l-4080 0 0 -5400z m9310 4253 c25
-3 55 -12 66 -20 17 -10 43 -12 110 -7 140 10 165 8 255 -20 104 -33 221 -85
232 -103 4 -7 15 -13 22 -13 21 0 18 -20 -2 -21 -10 0 -13 -3 -6 -5 16 -7 29
-52 48 -164 9 -52 24 -138 34 -190 36 -183 42 -221 36 -230 -3 -6 -46 -10 -94
-10 -76 0 -148 -8 -227 -25 -12 -3 -40 -22 -63 -44 -33 -31 -41 -45 -41 -75 0
-31 4 -37 28 -42 15 -4 30 -9 35 -11 10 -6 -31 -63 -46 -63 -23 -1 -116 -169
-117 -212 0 -11 62 2 80 16 8 7 34 21 57 32 24 10 43 23 43 27 0 9 79 86 158
154 28 25 52 54 52 64 0 11 7 19 16 19 8 0 13 4 10 9 -9 14 79 34 122 26 l39
-6 7 -86 c4 -47 5 -88 2 -91 -4 -3 -52 -6 -109 -7 -82 -1 -112 -6 -154 -24
-66 -29 -86 -52 -116 -131 -14 -36 -32 -78 -41 -95 -12 -23 -13 -32 -3 -42 15
-15 117 -30 102 -15 -5 5 -19 12 -30 14 -36 6 -21 33 35 59 30 15 58 25 62 22
4 -2 14 -25 21 -50 8 -26 20 -49 27 -51 10 -4 11 1 5 14 -12 29 -17 78 -8 90
4 6 25 14 45 18 35 6 38 5 44 -21 10 -46 13 -53 24 -53 11 0 14 7 24 52 6 25
8 26 35 15 49 -18 50 -81 1 -107 -10 -5 -47 -10 -82 -10 l-63 -1 60 -20 c33
-11 65 -26 70 -33 6 -8 25 -17 43 -20 37 -9 42 -31 10 -40 -50 -14 -187 -18
-262 -7 -89 13 -143 41 -235 123 -29 27 -67 56 -85 65 -17 9 -53 31 -80 49
-36 26 -54 32 -75 28 -34 -8 -114 -51 -140 -75 -11 -11 -23 -19 -26 -19 -8 0
-65 -40 -100 -71 -54 -47 -102 -69 -180 -84 -87 -17 -239 -19 -336 -5 -89 13
-334 84 -366 107 -14 10 -35 23 -46 30 -19 10 -19 13 -5 18 10 4 19 23 23 46
4 21 10 39 14 39 27 0 103 -36 112 -53 25 -45 85 -84 179 -113 63 -19 89 -18
199 12 53 15 119 29 146 33 49 6 50 6 55 46 7 52 16 64 40 58 20 -5 60 -48 60
-64 0 -4 -13 -10 -30 -14 -58 -13 -43 -26 27 -23 81 4 87 14 49 88 -17 33 -24
58 -20 77 8 39 -42 106 -98 132 -76 34 -411 27 -481 -11 -23 -12 -38 -1 -17
12 25 16 -28 12 -107 -9 l-72 -19 -3 22 c-4 22 10 64 27 81 39 38 128 92 200
120 41 16 74 20 180 20 137 -1 124 3 241 -59 18 -9 35 -27 38 -41 4 -14 11
-25 16 -25 6 0 10 -6 10 -14 0 -7 11 -21 25 -30 14 -9 25 -23 25 -31 0 -8 7
-15 15 -15 9 0 20 -12 26 -27 6 -16 24 -40 40 -55 16 -15 34 -39 39 -53 6 -15
16 -25 23 -22 27 9 -1 167 -30 167 -6 0 -13 10 -15 23 -2 12 -13 26 -25 32
-13 5 -23 16 -23 23 0 7 -7 15 -15 18 -23 9 -9 21 32 29 50 9 63 21 63 59 0
39 -7 49 -54 81 -50 34 -147 55 -255 55 -86 0 -271 -23 -327 -41 -38 -12 -160
-83 -191 -112 -29 -26 -40 -15 -23 20 8 16 15 35 16 44 0 9 5 29 10 45 4 16 9
34 9 39 1 6 5 19 9 30 5 11 17 45 29 75 11 30 26 62 33 70 7 8 16 27 19 43 4
15 11 27 16 27 5 0 9 8 9 18 0 10 7 27 15 38 8 12 11 24 8 28 -3 3 1 6 10 6
10 0 17 8 17 20 0 11 6 20 14 20 8 0 28 21 44 48 16 26 46 65 66 86 20 22 36
43 36 47 0 7 145 99 155 99 2 0 35 15 72 33 62 30 219 89 268 100 11 3 29 3
40 0 11 -2 40 -7 65 -10z m-502 -1291 c4 -38 29 -63 42 -41 5 7 7 23 4 34 -8
34 8 47 43 34 37 -12 46 -30 37 -76 -9 -45 -34 -57 -112 -50 -73 6 -90 18 -99
70 -5 33 -3 37 28 51 45 19 53 16 57 -22z m4841 -55 c27 -18 38 -32 35 -42 -4
-9 -1 -15 7 -15 10 0 10 -3 1 -12 -7 -7 -12 -25 -12 -40 0 -18 -5 -28 -15 -28
-20 0 -35 -39 -30 -84 4 -43 -7 -46 -68 -14 -23 12 -71 29 -106 38 -36 9 -66
21 -68 26 -2 6 7 22 20 35 14 13 28 35 32 49 4 14 16 37 26 52 11 14 19 30 19
35 0 42 96 42 159 0z m-4704 -773 c28 -11 46 -60 39 -106 -4 -24 -11 -48 -16
-54 -4 -6 -5 -20 -1 -30 6 -16 3 -15 -17 4 -13 12 -27 22 -31 22 -3 0 -23 -24
-44 -54 -36 -52 -68 -76 -103 -76 -10 0 -61 -12 -113 -26 -133 -36 -139 -37
-139 -27 0 4 17 17 38 28 63 32 156 97 185 129 15 17 48 61 73 98 60 89 86
108 129 92z m1011 -35 c5 -4 21 -30 34 -56 13 -26 60 -84 104 -129 66 -66 90
-85 130 -96 28 -8 52 -20 54 -26 7 -21 -101 -13 -184 13 -43 14 -84 25 -91 25
-6 0 -27 19 -47 43 -21 24 -36 36 -36 27 -1 -8 -2 -40 -3 -70 -5 -101 -83
-259 -136 -273 -14 -3 -24 4 -37 29 -18 33 -18 34 7 61 57 64 87 112 113 181
15 40 25 80 22 89 -4 9 -9 13 -13 10 -7 -8 -50 47 -59 75 -7 24 30 84 64 102
27 13 57 12 78 -5z m-797 -113 c6 -8 14 -37 18 -65 7 -58 20 -67 26 -18 3 25
4 21 5 -15 2 -38 -2 -49 -17 -58 -61 -32 -111 10 -111 94 0 29 5 57 12 64 16
16 53 15 67 -2z m185 -3 c3 -10 8 -44 12 -76 5 -44 10 -57 20 -53 8 3 14 1 14
-4 0 -16 -37 -30 -79 -30 -31 0 -43 5 -52 22 -14 26 -14 80 1 107 26 49 74 68
84 34z m-419 -165 c6 -89 28 -182 46 -202 19 -21 10 -46 -16 -46 -33 0 -72 41
-85 89 -21 77 -8 224 22 243 24 14 26 9 33 -84z m1544 -80 c7 -24 25 -70 41
-103 88 -191 119 -245 162 -294 28 -32 48 -65 48 -78 0 -13 6 -23 13 -23 7 0
27 -13 45 -29 21 -20 32 -25 32 -15 0 18 17 18 27 0 12 -22 143 -116 189 -136
47 -21 65 -40 37 -40 -40 0 -104 23 -228 81 -82 39 -200 172 -249 282 -13 29
-35 64 -48 79 -20 20 -26 40 -30 86 -2 33 -11 68 -18 78 -8 9 -20 38 -27 63
-7 25 -15 56 -19 69 -3 12 -2 22 3 22 6 0 15 -19 22 -42z m3586 -162 l19 -76
-34 -35 c-19 -19 -39 -35 -46 -35 -23 0 -29 105 -9 158 20 53 34 74 44 67 4
-2 16 -38 26 -79z m331 -58 c40 -31 48 -39 67 -69 16 -24 16 -27 2 -39 -22
-18 -45 -64 -45 -90 0 -11 -8 -23 -17 -26 -37 -12 -62 -27 -65 -40 -3 -15 -58
25 -135 97 -47 44 -48 71 -2 91 15 7 34 23 41 36 12 23 28 25 71 7 13 -5 17
-2 17 12 0 19 17 43 31 43 3 0 19 -10 35 -22z m-5680 -341 c5 -14 9 -16 15 -6
6 10 10 9 15 -6 8 -24 44 -65 56 -65 13 0 88 -76 88 -89 0 -6 7 -11 15 -11 14
0 54 -18 65 -30 3 -3 17 -11 33 -17 15 -7 27 -17 27 -23 0 -5 6 -10 14 -10 14
0 76 -30 86 -41 19 -22 198 -60 185 -39 -7 12 36 30 70 30 12 0 33 -9 46 -19
21 -17 22 -22 12 -40 -7 -11 -13 -26 -13 -34 0 -17 -40 -90 -54 -99 -7 -5 -5
-8 7 -8 35 0 15 -18 -33 -30 -35 -8 -99 -10 -208 -6 -205 9 -343 31 -406 64
l-48 26 5 58 c3 31 -1 99 -9 149 -17 119 -9 323 12 287 8 -13 17 -31 20 -41z
m1210 -264 c-7 -89 -19 -163 -30 -171 -16 -13 -74 -32 -131 -43 -127 -25 -133
-24 -95 24 11 14 20 29 20 34 0 5 36 38 80 74 43 35 79 70 80 77 0 7 4 11 9 8
5 -3 20 3 32 14 33 27 37 25 35 -17z m-529 -540 c-8 -43 3 -80 26 -91 21 -9
21 -10 -8 -17 -111 -25 -190 -86 -237 -185 -24 -47 -31 -147 -15 -203 10 -38
-6 -27 -27 17 -10 20 -16 60 -16 99 0 53 6 76 30 123 37 73 110 140 170 158
35 10 46 19 52 41 4 17 3 34 -3 42 -15 17 -4 43 17 43 13 0 15 -6 11 -27z
m1306 -563 c4 0 7 11 7 25 0 29 2 30 66 10 27 -8 64 -15 83 -15 33 0 34 1 15
15 -17 13 -11 14 61 14 44 0 98 -5 120 -11 22 -6 57 -11 78 -11 39 -1 49 -11
20 -22 -10 -4 -37 -29 -61 -57 -32 -37 -42 -57 -40 -77 l3 -26 116 -6 c99 -6
171 -18 201 -36 4 -2 5 -10 2 -17 -4 -11 -15 -11 -67 0 -168 36 -371 -8 -470
-101 -21 -20 -40 -35 -42 -33 -2 2 -32 68 -65 147 -67 157 -67 155 2 166 57
10 35 29 -23 21 -46 -6 -50 -5 -59 19 -19 50 -12 61 18 27 16 -18 32 -32 35
-32z m-2570 -187 c-19 -54 -41 -108 -49 -120 -8 -13 -14 -47 -14 -81 0 -62
-40 -190 -128 -407 -72 -180 -307 -659 -423 -865 -39 -69 -127 -237 -195 -375
-172 -344 -194 -384 -194 -350 0 19 -4 26 -14 22 -19 -7 -38 16 -30 36 3 10
-2 21 -15 29 -12 7 -21 21 -21 30 0 10 -7 18 -15 18 -8 0 -15 4 -15 9 0 4 -10
23 -23 42 -12 19 -29 54 -37 79 -14 44 -47 102 -62 108 -5 2 -8 10 -8 17 0 7
-7 15 -15 19 -8 3 -24 20 -34 38 -11 17 -26 33 -33 34 -34 5 -118 37 -118 45
0 5 -12 9 -26 9 -14 0 -37 9 -51 20 -14 11 -31 20 -37 20 -6 0 -24 16 -40 35
-35 41 -40 42 -53 13 l-10 -22 -19 23 c-10 13 -43 51 -72 85 -29 33 -74 93
-100 131 -26 39 -59 86 -74 106 -24 32 -26 40 -18 70 6 19 24 104 41 189 17
85 35 171 39 190 7 34 32 89 80 177 22 41 136 165 195 213 30 25 96 60 187 98
93 40 338 82 628 108 210 19 340 37 205 28 -44 -2 -116 -7 -160 -11 -52 -3
-77 -2 -70 4 10 10 126 48 370 122 72 21 155 49 185 60 30 12 62 21 70 21 8 0
53 18 100 39 47 22 90 39 96 40 7 1 -2 -39 -23 -96z m3942 65 c-2 -18 -9 -52
-16 -75 -7 -23 -10 -45 -7 -48 9 -9 50 14 69 38 16 20 18 20 34 3 24 -23 6
-63 -35 -78 -61 -21 -30 -44 55 -40 11 0 14 -2 8 -4 -7 -3 -13 -13 -13 -21 0
-13 3 -13 15 -3 23 19 29 6 33 -71 3 -50 8 -69 18 -69 11 0 14 -19 14 -84 0
-83 0 -84 -36 -120 -20 -20 -43 -36 -52 -37 -11 0 -12 -2 -4 -6 6 -2 12 -11
12 -19 0 -8 5 -14 10 -14 6 0 10 -7 10 -15 0 -7 6 -18 13 -22 25 -16 36 -48
22 -66 -7 -10 -10 -27 -7 -39 4 -15 2 -19 -7 -14 -7 5 -18 0 -26 -10 -13 -18
-14 -17 -15 10 0 30 -19 51 -77 87 -18 11 -33 23 -33 25 0 3 4 3 9 0 5 -4 17
-3 28 1 13 6 3 9 -32 14 -27 3 -57 2 -65 -1 -121 -58 -132 -64 -164 -93 -58
-50 -126 -89 -167 -93 -42 -5 -43 -4 -24 11 11 8 27 21 35 28 9 7 24 16 34 20
9 4 14 11 11 17 -4 6 -20 3 -43 -9 -73 -36 -160 -61 -194 -55 -35 7 -108 43
-108 54 0 4 14 26 31 50 l31 42 -27 28 c-26 27 -26 29 -10 54 11 17 26 26 44
26 38 0 175 150 221 243 l35 71 45 2 c55 2 95 21 143 69 49 49 64 95 41 130
-16 24 -16 26 2 41 10 8 36 23 56 34 20 11 39 24 43 30 3 5 15 10 25 10 16 0
18 -6 15 -32z m2020 -181 c-39 -217 -120 -503 -210 -747 -94 -252 -260 -607
-323 -689 l-26 -34 -19 40 -20 41 96 193 c53 107 108 223 122 259 15 36 33 79
40 95 54 122 174 514 225 735 26 110 34 129 87 189 47 56 51 45 28 -82z"/>
<path d="M11820 4748 c-79 -18 -108 -52 -141 -162 l-9 -30 34 33 c26 25 45 34
93 41 60 8 146 41 158 60 3 5 14 10 23 10 11 0 7 -9 -17 -34 -22 -23 -52 -39
-92 -50 -90 -26 -87 -40 6 -32 91 8 115 19 170 75 21 23 43 41 48 41 18 0 40
31 29 42 -15 15 -246 20 -302 6z"/>
</g>
</svg>
