<?xml version="1.0" standalone="no"?>
<!DOCTYPE svg PUBLIC "-//W3C//DTD SVG 20010904//EN"
 "http://www.w3.org/TR/2001/REC-SVG-20010904/DTD/svg10.dtd">
<svg version="1.0" xmlns="http://www.w3.org/2000/svg"
 width="300.000000pt" height="300.000000pt" viewBox="0 0 300.000000 300.000000"
 preserveAspectRatio="xMidYMid meet">

<g transform="translate(0.000000,300.000000) scale(0.100000,-0.100000)"
fill="#000000" stroke="none">
<path d="M0 1500 l0 -1500 1500 0 1500 0 0 1500 0 1500 -1500 0 -1500 0 0
-1500z m730 1230 l0 -180 45 0 45 0 0 180 0 180 320 0 320 0 0 -325 0 -325
-165 0 -165 0 0 -45 0 -45 165 0 165 0 0 -305 0 -305 -320 0 -320 0 0 165 0
165 -45 0 -45 0 0 -165 0 -165 -320 0 -320 0 0 675 0 675 320 0 320 0 0 -180z
m2180 -495 l0 -675 -680 0 -680 0 0 675 0 675 680 0 680 0 0 -675z m-1450
-1120 l0 -325 -165 0 -165 0 0 -45 0 -45 165 0 165 0 0 -305 0 -305 -310 0
-310 0 0 195 0 195 -45 0 -45 0 0 -195 0 -195 -330 0 -330 0 0 675 0 675 685
0 685 0 0 -325z m1450 145 l0 -180 -510 0 -510 0 0 -40 0 -40 510 0 510 0 0
-220 0 -220 -510 0 -510 0 0 -40 0 -40 510 0 510 0 0 -195 0 -195 -680 0 -680
0 0 675 0 675 680 0 680 0 0 -180z"/>
<path d="M2158 2486 c-26 -7 -55 -19 -65 -26 -86 -65 -123 -133 -123 -225 1
-148 114 -258 265 -257 237 1 348 284 176 445 -33 31 -66 51 -102 61 -62 19
-88 19 -151 2z"/>
<path d="M750 950 l0 -160 45 0 45 0 0 160 0 160 -45 0 -45 0 0 -160z"/>
</g>
</svg>
